<?xml version="1.0" encoding="UTF-8"?>
<svg version="1.1" xmlns="http://www.w3.org/2000/svg" width="523" height="202">
<path d="M0 0 C172.59 0 345.18 0 523 0 C523 66.66 523 133.32 523 202 C350.41 202 177.82 202 0 202 C0 135.34 0 68.68 0 0 Z " fill="#004CFE" transform="translate(0,0)"/>
<path d="M0 0 C4.43327094 2.55361353 7.65729324 5.60080016 10.80078125 9.61328125 C11.48140625 10.46986328 11.48140625 10.46986328 12.17578125 11.34375 C16.32351236 17.86778539 15.52885338 26.21997147 14.80078125 33.61328125 C12.9556802 41.31030043 7.90408982 47.48839561 1.6875 52.22265625 C-5.74792943 56.67141739 -13.81165152 56.46915546 -22.19921875 55.61328125 C-23.84921875 54.95328125 -25.49921875 54.29328125 -27.19921875 53.61328125 C-27.52921875 60.87328125 -27.85921875 68.13328125 -28.19921875 75.61328125 C-33.67713234 74.16130415 -38.95345715 72.75488179 -44.19921875 70.61328125 C-44.25019211 64.0845882 -44.28506655 57.55594704 -44.30908203 51.02709961 C-44.31910049 48.80898114 -44.33271901 46.59087575 -44.35009766 44.37280273 C-44.37452926 41.17298136 -44.38574371 37.97333558 -44.39453125 34.7734375 C-44.40485382 33.79182144 -44.41517639 32.81020538 -44.42581177 31.79884338 C-44.42758889 20.73705038 -42.62745839 13.24370063 -34.94921875 4.98828125 C-24.97889714 -4.72418721 -12.37004449 -5.69567548 0 0 Z " fill="#DCE0E7" transform="translate(397.19921875,83.38671875)"/>
<path d="M0 0 C0 -0.99 0 -1.98 0 -3 C5.28 -3 10.56 -3 16 -3 C16 16.47 16 35.94 16 56 C10.72 56 5.44 56 0 56 C0 55.34 0 54.68 0 54 C-0.65484375 54.32097656 -1.3096875 54.64195312 -1.984375 54.97265625 C-8.82817901 57.30415943 -17.90591599 57.19922079 -24.8671875 55.16015625 C-32.30594652 51.33781814 -38.22639212 44.41761652 -41.34375 36.69140625 C-43.33158323 28.53892354 -43.40343842 19.28844979 -39 12 C-38.67128906 11.42121094 -38.34257812 10.84242187 -38.00390625 10.24609375 C-34.18051091 4.12072336 -28.50055075 0.63855567 -22.0625 -2.375 C-14.11700358 -3.99652988 -7.4643025 -3.02899232 0 0 Z " fill="#DCE0E7" transform="translate(482,83)"/>
<path d="M0 0 C6.89686394 4.00368796 11.53551701 9.2648424 14.140625 16.8359375 C16.20431782 25.9806763 15.29371503 34.40110761 10.765625 42.60546875 C6.57913063 49.00834249 -0.01920884 53.20041336 -7.234375 55.60546875 C-17.8887605 56.50947722 -25.49649618 55.58276234 -34.22265625 49.13671875 C-40.33528716 43.79634742 -43.48178041 36.445325 -44.71484375 28.515625 C-45.13315015 19.73119064 -42.10659236 13.22356032 -36.921875 6.29296875 C-26.38040115 -4.2485051 -13.52271154 -6.31885866 0 0 Z " fill="#DBE0E7" transform="translate(333.234375,83.39453125)"/>
<path d="M0 0 C5.61 0 11.22 0 17 0 C21.14232953 10.27911402 25.13105783 20.6149447 29 31 C31.5997015 28.4002985 32.3128001 25.90762764 33.6015625 22.4609375 C33.9635524 21.49965439 33.9635524 21.49965439 34.33285522 20.51895142 C35.10201956 18.47284401 35.86358537 16.4240023 36.625 14.375 C37.14533518 12.98679234 37.6661626 11.59876909 38.1875 10.2109375 C39.4649927 6.80971489 40.7321729 3.4049002 42 0 C47.61 0 53.22 0 59 0 C57.5434263 5.2896624 55.98404748 10.23126775 53.625 15.1875 C51.66294229 19.34961651 50.1373679 23.48804703 48.75 27.875 C46.60189763 34.5396253 44.0154232 40.94304839 41.25 47.375 C40.8487793 48.30940918 40.44755859 49.24381836 40.03417969 50.20654297 C37.14090741 56.85909259 37.14090741 56.85909259 36 58 C33.81360547 58.07258946 31.62499611 58.08373783 29.4375 58.0625 C27.64119141 58.04896484 27.64119141 58.04896484 25.80859375 58.03515625 C24.88175781 58.02355469 23.95492187 58.01195312 23 58 C19.9555377 52.47486471 17.92527603 46.92910029 15.99951172 40.92480469 C14.13420159 35.20301182 11.85219888 29.75674169 9.41796875 24.25 C7.77133331 20.47589343 6.29459035 16.65168371 4.859375 12.79296875 C4.13531657 10.81212858 4.13531657 10.81212858 2 10 C2 14.95 2 19.9 2 25 C-15.49 25 -32.98 25 -51 25 C-51 19.72 -51 14.44 -51 9 C-33.51 9 -16.02 9 2 9 C1.34 6.03 0.68 3.06 0 0 Z " fill="#D5DCE8" transform="translate(82,81)"/>
<path d="M0 0 C9.06181679 -0.46233759 14.60267264 2.2238057 22.0625 7.03125 C30.5999218 15.5686718 31.25 24.03575012 31.25 36.21875 C17.72 36.21875 4.19 36.21875 -9.75 36.21875 C-5.9349907 40.0337593 -4.75947588 41.13827481 0.25 42.21875 C5.04441574 41.87629173 8.611838 40.764804 13.25 39.21875 C16.22 42.18875 19.19 45.15875 22.25 48.21875 C20.29178373 52.13518254 19.81264962 52.84005367 16.3125 54.90625 C15.62285156 55.32261719 14.93320313 55.73898438 14.22265625 56.16796875 C7.90501779 59.53320587 -0.22588948 58.96040746 -7.1328125 57.828125 C-13.0138334 55.97096051 -17.69640065 51.75024738 -21.75 47.21875 C-23.3125 43.71875 -23.3125 43.71875 -23.75 41.21875 C-24.41 41.21875 -25.07 41.21875 -25.75 41.21875 C-27.48188497 29.96149768 -28.22567434 19.80062402 -21.625 10.09375 C-17.48418011 5.54134259 -12.39935969 1.91858086 -6.4375 0.34375 C-4.28984316 0.27094807 -2.14212398 0.17039623 0 0 Z " fill="#DCE0E7" transform="translate(162.75,80.78125)"/>
<path d="M0 0 C4.95 0 9.9 0 15 0 C15 0.99 15 1.98 15 3 C15.99 2.67 16.98 2.34 18 2 C27.22130422 1.21108056 35.63841096 1.61793204 43.03125 7.66015625 C51.43279234 16.32869676 52.50460066 26.56926944 52.3515625 38.05273438 C52.31815857 39.59766605 52.28429902 41.14258794 52.25 42.6875 C52.22989014 44.27536792 52.21164735 45.86326063 52.1953125 47.45117188 C52.15513786 51.30191077 52.07680403 55.14913117 52 59 C46.72 59 41.44 59 36 59 C35.98582031 56.53144531 35.97164062 54.06289062 35.95703125 51.51953125 C35.92638772 49.11989816 35.88730534 46.72053997 35.84741211 44.32104492 C35.82426334 42.65773288 35.80984369 40.9942749 35.80444336 39.33081055 C35.7951302 36.93446249 35.75409449 34.54039941 35.70703125 32.14453125 C35.7109639 31.4047554 35.71489655 30.66497955 35.71894836 29.90278625 C35.60730088 25.92214277 35.13445974 24.16614396 32.59838867 21.0324707 C29.91615937 18.9344195 28.84122579 18.3161756 25.5 18.375 C24.40171875 18.35566406 24.40171875 18.35566406 23.28125 18.3359375 C19.76724613 19.35884959 18.29183895 21.18115691 16 24 C15.49277848 26.83732319 15.27745489 29.09373781 15.29296875 31.92578125 C15.27784744 32.67337204 15.26272614 33.42096283 15.24714661 34.19120789 C15.20435919 36.56528087 15.1954412 38.93808031 15.1875 41.3125 C15.16434842 42.92776802 15.13898169 44.54300591 15.11132812 46.15820312 C15.04441365 50.10615713 15.02336928 54.05059113 15 58 C10.05 58 5.1 58 0 58 C0 38.86 0 19.72 0 0 Z " fill="#DCE0E7" transform="translate(198,80)"/>
<path d="M0 0 C0 5.94 0 11.88 0 18 C5.28 18 10.56 18 16 18 C16 22.62 16 27.24 16 32 C10.72 32 5.44 32 0 32 C-0.51458124 45.26149931 -0.51458124 45.26149931 5.1015625 56.65234375 C8.52645668 59.08359579 11.93294689 60.01404773 16 61 C16 66.28 16 71.56 16 77 C6.54110721 77 0.72990564 74.42563503 -6.14453125 67.9765625 C-14.89750386 58.65234325 -16.33999739 49.0771679 -16.1953125 36.6171875 C-16.1924826 35.67690704 -16.18965271 34.73662659 -16.18673706 33.76785278 C-16.17565978 30.80343173 -16.15057951 27.83932769 -16.125 24.875 C-16.11495407 22.84896274 -16.10583106 20.82292068 -16.09765625 18.796875 C-16.07576144 13.86446365 -16.04131957 8.93228532 -16 4 C-14.08594633 3.32586789 -12.16863974 2.6609668 -10.25 2 C-9.18265625 1.62875 -8.1153125 1.2575 -7.015625 0.875 C-4 0 -4 0 0 0 Z " fill="#DBE0E7" transform="translate(274,63)"/>
<path d="M0 0 C0 20.13 0 40.26 0 61 C-5.28 61 -10.56 61 -16 61 C-16 42.52 -16 24.04 -16 5 C-1 0 -1 0 0 0 Z " fill="#D6DCE8" transform="translate(434,78)"/>
<path d="M0 0 C17.49 0 34.98 0 53 0 C53 5.28 53 10.56 53 16 C35.51 16 18.02 16 0 16 C0 10.72 0 5.44 0 0 Z " fill="#D3DAE8" transform="translate(31,123)"/>
<path d="M0 0 C17.49 0 34.98 0 53 0 C53 4.95 53 9.9 53 15 C35.51 15 18.02 15 0 15 C0 10.05 0 5.1 0 0 Z " fill="#DEE1E7" transform="translate(31,58)"/>
<path d="M0 0 C16.83 0 33.66 0 51 0 C51 4.62 51 9.24 51 14 C34.17 14 17.34 14 0 14 C0 9.38 0 4.76 0 0 Z " fill="#E2E4E7" transform="translate(32,91)"/>
<path d="M0 0 C3.81674844 2.68259009 6.40165855 5.72707957 7.6015625 10.28515625 C7.92574379 15.25877973 6.64106395 18.73687201 3.484375 22.55859375 C0.13609702 25.80994789 -2.93205446 26.86650681 -7.5 27.4375 C-12.73996601 26.78250425 -15.48468871 24.31592823 -19.375 20.9375 C-21.88559756 16.39911211 -21.74014095 12.06653183 -21 7 C-18.94428217 3.05302176 -16.26890017 1.00344835 -12.0546875 -0.54296875 C-7.83164844 -1.48231394 -4.10808193 -1.38467298 0 0 Z " fill="#0851FE" transform="translate(476,97)"/>
<path d="M0 0 C4.30746475 2.23656823 7.52075882 4.80436107 10 9 C10.68258659 14.29004609 10.25365958 17.95541643 7.328125 22.45703125 C4.00753109 26.31478006 0.4093132 27.80220166 -4.5625 28.5 C-9.46453859 27.78697621 -12.2501962 25.62912768 -15.8125 22.3125 C-18.07439635 17.90775448 -18.46640441 13.0521794 -17.375 8.25 C-13.11876225 1.28524732 -8.04923329 -1.0997055 0 0 Z " fill="#0650FE" transform="translate(387,96)"/>
<path d="M0 0 C3.62011046 2.33296007 5.89022378 4.96794755 7.8125 8.8125 C8.36254295 14.53294663 7.45614029 17.38104559 3.8125 21.8125 C1.45318067 24.52929196 -0.17919901 25.64753332 -3.7421875 26.23046875 C-8.30141638 26.45904798 -12.04178041 26.51120047 -15.75 23.625 C-19.63476377 19.14258026 -20.60595198 15.5632001 -20.44140625 9.73828125 C-19.9298927 5.85864774 -18.0556899 3.57216617 -15.1875 1.0625 C-10.28692654 -2.00035841 -5.32825824 -1.98503738 0 0 Z " fill="#054FFE" transform="translate(325.1875,97.1875)"/>
<path d="M0 0 C0.99 0 1.98 0 3 0 C3 5.94 3 11.88 3 18 C8.28 18 13.56 18 19 18 C19.02693321 21.27088814 19.04680664 24.54155522 19.0625 27.8125 C19.07087891 28.74126953 19.07925781 29.67003906 19.08789062 30.62695312 C19.09272461 31.9659668 19.09272461 31.9659668 19.09765625 33.33203125 C19.10551147 34.56530151 19.10551147 34.56530151 19.11352539 35.82348633 C19 38 19 38 18 41 C17.37698952 48.87149778 18.25416638 55.61240001 21 63 C20.34 63 19.68 63 19 63 C19 67.95 19 72.9 19 78 C18.67 78 18.34 78 18 78 C18 72.72 18 67.44 18 62 C15.69 61.67 13.38 61.34 11 61 C6.81963832 58.37512173 4.34837904 55.31925247 2 51 C1.53528352 47.85371037 1.61849098 44.79639058 1.75 41.625 C1.76804687 40.79355469 1.78609375 39.96210937 1.8046875 39.10546875 C1.85148427 37.06980926 1.92321702 35.0347491 2 33 C7.28 33 12.56 33 18 33 C18 28.38 18 23.76 18 19 C12.72 19 7.44 19 2 19 C2 13.06 2 7.12 2 1 C1.34 0.67 0.68 0.34 0 0 Z " fill="#0D55FD" transform="translate(272,62)"/>
<path d="M0 0 C13.53 0 27.06 0 41 0 C41 0.33 41 0.66 41 1 C35.06 1 29.12 1 23 1 C23 1.66 23 2.32 23 3 C17.94694516 6.20807024 14.10453976 7.62697636 8.12109375 6.62109375 C4.79137017 5.64609182 2.64958736 4.24195853 0 2 C0 1.34 0 0.68 0 0 Z " fill="#0952FE" transform="translate(153,117)"/>
<path d="M0 0 C2.625 1.6875 2.625 1.6875 4.625 4.6875 C-2.635 4.6875 -9.895 4.6875 -17.375 4.6875 C-15.375 0.6875 -15.375 0.6875 -13.75 -0.5625 C-8.80282049 -2.12476721 -4.73258774 -1.84045079 0 0 Z " fill="#0D55FD" transform="translate(171.375,97.3125)"/>
<path d="M0 0 C2.62641337 3.93962005 1.74774989 5.39739045 1 10 C0.87533733 12.98044848 0.90427683 15.95508131 0.9375 18.9375 C0.94201172 19.71673828 0.94652344 20.49597656 0.95117188 21.29882812 C0.96283092 23.19925268 0.98076123 25.09963706 1 27 C-1.77042109 24.22957891 -1.39796106 22.23466195 -1.625 18.375 C-1.69976562 17.18648437 -1.77453125 15.99796875 -1.8515625 14.7734375 C-1.90054688 13.85820313 -1.94953125 12.94296875 -2 12 C-2.66 12.66 -3.32 13.32 -4 14 C-3.36843005 8.94744036 -1.86540627 4.70406799 0 0 Z " fill="#477CF7" transform="translate(136,92)"/>
<path d="M0 0 C13.53 0 27.06 0 41 0 C41 0.33 41 0.66 41 1 C35.64316109 1.14291999 30.28630878 1.28532319 24.92944336 1.42724609 C23.10684843 1.47560628 21.28425725 1.52410805 19.46166992 1.57275391 C16.84294592 1.64262457 14.22420889 1.71198721 11.60546875 1.78125 C10.38188911 1.81406067 10.38188911 1.81406067 9.1335907 1.84753418 C6.08808243 1.92770301 3.04671601 2 0 2 C0 1.34 0 0.68 0 0 Z " fill="#306CF9" transform="translate(153,117)"/>
<path d="M0 0 C0.66 0.33 1.32 0.66 2 1 C-1.3 4.3 -4.6 7.6 -8 11 C-8 7.0234755 -6.61988497 5.9109833 -4 3 C-1.75 1.1875 -1.75 1.1875 0 0 Z " fill="#BBCAEB" transform="translate(148,85)"/>
</svg>
